PathFileType	4	(X/Y/Z)	Walk1_0-155.trc
DataRate	CameraRate	NumFrames	NumMarkers	Units	OrigDataRate	OrigDataStartFrame	OrigNumFrames
30	30	5	22	m	30	19	155
Frame#	Time	Hip			RHip			RKnee			RAnkle			RBigToe			RSmallToe			RHeel			LHip			LKnee			LAnkle			LBigToe			LSmallToe			LHeel			Neck			Head			Nose			RShoulder			RElbow			RWrist			LShoulder			LElbow			LWrist		
		X1	Y1	Z1	X2	Y2	Z2	X3	Y3	Z3	X4	Y4	Z4	X5	Y5	Z5	X6	Y6	Z6	X7	Y7	Z7	X8	Y8	Z8	X9	Y9	Z9	X10	Y10	Z10	X11	Y11	Z11	X12	Y12	Z12	X13	Y13	Z13	X14	Y14	Z14	X15	Y15	Z15	X16	Y16	Z16	X17	Y17	Z17	X18	Y18	Z18	X19	Y19	Z19	X20	Y20	Z20	X21	Y21	Z21	X22	Y22	Z22
20	0.6666666666666666	-2.5128354322867295	0.8396650851746734	0.32323884703598876	-2.4628261405450727	0.8248539579910116	0.42697614578529275	-2.3003256779427605	0.5196362823507844	0.4634760891394828	-2.4769155542569017	0.13780138894898677	0.4860413812675202	-2.352741438565469	-0.0005294716723169615	0.5055302675338352	-2.360375135759743	0.024527089816163538	0.5829255334016595	-2.575186671420511	0.06483221065652939	0.45369751429952715	-2.5279497767855545	0.8052909947224343	0.23356629762478046	-2.502917386739776	0.44835906922873575	0.24282316115890562	-2.5746160418939863	0.07865959952100159	0.27373398645394686	-2.372694430994601	-0.014686484014376222	0.27609525457531675	-2.4179628372849304	-0.018904328878010135	0.2102779798451896	-2.6243360079548017	-8.053370433396468e-05	0.29085958924399286	-2.49158674397805	1.5144664881629406	0.2738363472545688	-2.418986138257212	1.7762291371782044	0.23510917550383983	-2.336314673049357	1.6414302045282014	0.2835266407167821	-2.53006314934352	1.40956610562461	0.4620728124487877	-2.5104107469458494	1.091510556307075	0.5554382788993023	-2.426843728784751	0.8578975106656843	0.570706492470861	-2.553960613578878	1.4109746149210878	0.056879816033786765	-2.501907184513527	1.084065470387599	0.06672436671596237	-2.4582146459864784	0.8384929551188341	0.07587068466058326
21	0.7	-2.503611554063738	0.8429790065549471	0.3223235866821981	-2.4507244014148206	0.8296027947694004	0.4210210647046717	-2.2730480104830364	0.5219421230540244	0.462121876030155	-2.4400170686157567	0.14266360040772205	0.47611208591624055	-2.3195507648533273	0.019669713845845507	0.4871354327742794	-2.3348847568367592	0.01085037315965104	0.5548907419348252	-2.544354392390607	0.0660234991487147	0.44738857059257225	-2.52607123306791	0.8065996515233372	0.23083852231441404	-2.5003265143462508	0.4490882790866109	0.2431264963203291	-2.573010990812272	0.07928439437734651	0.27467345925400977	-2.3742251876141913	-0.01753660356011808	0.27753915747260927	-2.4216064089273175	-0.020479947792021686	0.21343277471930344	-2.624166960036924	0.00044930659974089823	0.2884564869714853	-2.483099824401393	1.5159983848368244	0.2760836333783898	-2.4126321110171025	1.7727705742029014	0.23503803397052775	-2.322824205014473	1.6382913822359553	0.28647180179517406	-2.520861131523737	1.4095724497138002	0.462567743130252	-2.5097130770634153	1.0922566620285072	0.5534854063858801	-2.4263696194278364	0.8606721861589693	0.5699400963800174	-2.5447305418051585	1.414373855858135	0.05191174837319301	-2.492163337188363	1.086321606389696	0.06509016774092173	-2.446715655063961	0.8419042341487023	0.0742748657067645
22	0.7333333333333333	-2.4936061568921644	0.8433138617999845	0.3199648019281558	-2.4346161526835184	0.8335995445920378	0.42056642280201667	-2.25974320464241	0.5250371005914339	0.4573100686675423	-2.4008173502613603	0.14635917171932308	0.4716353905327218	-2.2691105853730305	0.030086748994718963	0.481415514340193	-2.289435964055398	0.01585696894895052	0.5520226873472465	-2.4960942065624847	0.06805071136476243	0.44816400678143287	-2.5163371507114847	0.8079102288549429	0.2261283973843371	-2.491263906946091	0.4501924884059414	0.24189031524414475	-2.572623725538823	0.08083640603837948	0.2750199477131043	-2.378927973065083	-0.01914073676730318	0.28081197822594844	-2.4260654877278363	-0.02295762554165254	0.2174103811034289	-2.6287719771327187	2.7268633491754222e-05	0.28904341325075406	-2.471315782714377	1.5156337964576947	0.2746182901213713	-2.3957646381088633	1.779453363621723	0.23678339074672938	-2.314125713441346	1.6395005395431936	0.2816812805571553	-2.5133075895914327	1.4111652821846117	0.46004619648331957	-2.45713350395497	1.083234179466399	0.5587719633599211	-2.423984254369523	0.8579097695232086	0.5673093008316764	-2.532044192593729	1.4131325605701546	0.05034737726512623	-2.482286439848197	1.0843001365431377	0.06526548562922205	-2.435698303574051	0.844050783674352	0.07040207183504096
23	0.7666666666666667	-2.4821910384110124	0.8474381319768509	0.32110352044703433	-2.4276451759151563	0.8360567690366986	0.4172930755787323	-2.2439703813341816	0.5248627362614974	0.45394401594825873	-2.3609422408660485	0.13872929539422363	0.46770525825867704	-2.204422652264168	0.036961745134999086	0.48449251418210953	-2.2281393360668496	0.022935596019000852	0.5461944473644137	-2.444556247053203	0.05776499750451974	0.44940751897652575	-2.510287702576859	0.809982455986164	0.22400339213242382	-2.486499201486693	0.4518098421860833	0.2427007345107739	-2.572505437887213	0.07913998918064166	0.26996352117519595	-2.382946365362034	-0.02256495959949541	0.28245654624462196	-2.430858308374478	-0.025260559893952	0.21914117037861883	-2.6261672681154984	0.0003692769069978222	0.28079159798220793	-2.4609551520639523	1.5167265806342545	0.2714985850519703	-2.3765961179544832	1.7693541782787778	0.3055008294077823	-2.3039572749604678	1.637367917595943	0.28289722087128083	-2.5021354894680052	1.4113807344354443	0.4578915980794947	-2.447576702620067	1.085509079760599	0.5602265886489803	-2.4214679797009198	0.8553603520734573	0.5674167403002345	-2.5192953161477463	1.4178070664005122	0.05429036038733023	-2.469098810332317	1.0898394388219914	0.06644965889863001	-2.4218526401671197	0.8459906423898241	0.07035786500495014
24	0.8	-2.4709209513003043	0.8464341347635035	0.32040906304425765	-2.4181453577532985	0.8373625889783802	0.4165603591899953	-2.2378941857684103	0.5222146564612626	0.4496515588542294	-2.336180591083858	0.12893100449024886	0.46507085874076015	-2.142391982344254	0.042752501168479506	0.4852358589345582	-2.160602995586805	0.030003710204526635	0.561422748207088	-2.3707769814749766	0.041265444123089384	0.4361545831306063	-2.4977101934857444	0.8122700162693436	0.22456732941506763	-2.4850229368570123	0.44770968532179245	0.24325847817418444	-2.5726633692997734	0.0786479455115847	0.2686250506054229	-2.3889357421252235	-0.022624042411650693	0.2881134945603867	-2.435043429297421	-0.020778853360678355	0.2236217617560589	-2.6242337825827136	-0.0003912617944128508	0.2739700783875594	-2.449470378059268	1.5163367800097223	0.2712342269718598	-2.3686736140717493	1.7705146254347417	0.30281233889828746	-2.2919615383879024	1.639635856251821	0.28587408498379485	-2.49251404935828	1.4140821124761702	0.454572067968027	-2.4353864454652374	1.082928959114849	0.5600845246872381	-2.4221848054980706	0.8484529602753786	0.5694164424666893	-2.506237039538012	1.418572846695192	0.0561042757123592	-2.457244922692985	1.0895421913849428	0.06756931141303961	-2.408795459576415	0.8431236188246881	0.07281922067175754
